<?xml version="1.0" encoding="UTF-8" standalone="no"?>
<svg
   xmlns:dc="http://purl.org/dc/elements/1.1/"
   xmlns:cc="http://creativecommons.org/ns#"
   xmlns:rdf="http://www.w3.org/1999/02/22-rdf-syntax-ns#"
   xmlns:svg="http://www.w3.org/2000/svg"
   xmlns="http://www.w3.org/2000/svg"
   xmlns:sodipodi="http://sodipodi.sourceforge.net/DTD/sodipodi-0.dtd"
   xmlns:inkscape="http://www.inkscape.org/namespaces/inkscape"
   version="1.1"
   id="Ebene_1"
   x="0px"
   y="0px"
   width="336"
   height="336"
   viewBox="13.98935 -9.75 336 453.6"
   enable-background="new 9.142 0.25 96.947 100"
   xml:space="preserve"
   inkscape:version="0.48.4 r9939"
   sodipodi:docname="noun_557 + noun_1214_cc.svg"
   inkscape:export-filename="W:\mysmallprojects\DietphoneGit\Dietphone\ApplicationIcon.png"
   inkscape:export-xdpi="90"
   inkscape:export-ydpi="90"><metadata
   id="metadata19"><rdf:RDF><cc:Work
       rdf:about=""><dc:format>image/svg+xml</dc:format><dc:type
         rdf:resource="http://purl.org/dc/dcmitype/StillImage" /><dc:title></dc:title></cc:Work></rdf:RDF></metadata><defs
   id="defs17" /><sodipodi:namedview
   pagecolor="#ffffff"
   bordercolor="#666666"
   borderopacity="1"
   objecttolerance="10"
   gridtolerance="10"
   guidetolerance="10"
   inkscape:pageopacity="0"
   inkscape:pageshadow="2"
   inkscape:window-width="1494"
   inkscape:window-height="979"
   id="namedview15"
   showgrid="false"
   inkscape:zoom="0.834386"
   inkscape:cx="37.083823"
   inkscape:cy="284.82243"
   inkscape:window-x="0"
   inkscape:window-y="30"
   inkscape:window-maximized="0"
   inkscape:current-layer="Ebene_1" />




<g
   id="g3059"
   transform="matrix(0.83979303,0,0,0.83979303,27.583219,34.380077)"
   style="fill:#000000"><g
     transform="matrix(2.2773959,0,0,2.2773959,142.63145,-564.98102)"
     id="g3018"
     style="fill:#000000"><path
       d="m 47.646,379.25 c -19.095,0 -34.935,-4.411 -37.971,-10.204 3.04,22.626 18.9,49.804 38.021,49.804 19.2,0 35.116,-27.406 38.061,-50.083 -2.662,5.927 -18.707,10.483 -38.111,10.483 z"
       id="path3"
       inkscape:connector-curvature="0"
       style="fill:#000000" /><path
       d="m 100.786,338.087 c -4.564,2.482 -14.294,-4.7 -19.786,-5.778 0.531,-0.2 1.037,-0.38 1.486,-0.514 4.641,-1.382 17.789,4.609 22.172,5.837 4.385,1.228 -2.321,-18.74 -6.573,-14.287 -4.253,4.455 -17.788,-0.614 -22.171,1.844 -1.24,0.694 -2.391,2.074 -3.413,3.682 -6.704,-6.25 -15.355,-10.021 -24.804,-10.021 -21.293,0 -38.555,19.12 -38.555,42.704 0,1.394 0.064,2.828 0.182,4.284 1.876,-6.197 18.315,-8.125 38.322,-8.125 20.344,0 36.992,2.091 38.4,8.439 0.133,-1.566 0.204,-3.103 0.204,-4.598 0,-7.528 -1.766,-14.599 -4.853,-20.741 0.89,-0.037 1.715,-0.046 2.409,-0.006 4.777,0.273 15.916,10.533 19.812,13.217 3.899,2.687 2.32,-18.737 -2.832,-15.937 z"
       id="path5"
       inkscape:connector-curvature="0"
       style="fill:#000000" /><path
       d="m 45.107,371.102 -22.511,-8.253 -1.691,4.616 9.014,1.355 c -0.622,0.564 -1.02,1.375 -1.02,2.282 0,1.71 1.387,3.097 3.097,3.097 1.711,0 3.098,-1.387 3.098,-3.097 0,-0.576 -0.168,-1.109 -0.441,-1.572 l 10.454,1.572 z"
       id="path7"
       inkscape:connector-curvature="0"
       style="fill:#000000" /><path
       d="m 65.476,368.82 9.014,-1.355 -1.691,-4.617 -22.512,8.254 10.456,-1.57 c -0.275,0.463 -0.441,0.995 -0.441,1.57 0,1.71 1.387,3.098 3.097,3.098 1.71,0 3.1,-1.388 3.1,-3.098 -0.005,-0.907 -0.4,-1.718 -1.023,-2.282 z"
       id="path9"
       inkscape:connector-curvature="0"
       style="fill:#000000" /></g><g
     id="g2994"
     transform="matrix(-2.1340114,0,0,2.1340114,196.89099,46.128735)"
     style="fill:#000000"><path
       d="M 7.563,54.977 C 0.543,54.977 0,47.413 0,47.413 V 0.003 h 92.995 c 0,0 7.006,-0.325 7.006,6.125 0,6.782 -6.057,6.411 -6.057,6.411 H 69.116 c -0.622,-0.233 -1.28,-0.4 -1.974,-0.485 L 46.834,9.49 24.384,3.019 c -0.718,-0.208 -1.464,0.205 -1.673,0.919 -0.204,0.718 0.203,1.5 0.917,1.709 l 22.9,6.602 c 1.58,0.452 2.885,1.497 3.684,2.936 0.796,1.436 0.984,3.094 0.527,4.668 -0.45,1.576 -1.493,2.882 -2.936,3.68 -1.424,0.789 -3.075,0.979 -4.639,0.537 -0.011,-0.003 -0.021,-0.003 -0.036,-0.003 l -9.632,-2.794 c -4.997,-1.566 -8.716,0.007 -12.666,1.67 -3.042,1.286 -6.185,2.605 -10.45,2.896 -0.522,0.034 -1.072,0.067 -1.714,0.064 -0.753,-0.007 -1.362,0.594 -1.365,1.335 -0.012,0.748 0.615,1.401 1.365,1.401 5.725,-0.003 9.713,-1.688 13.232,-3.175 3.765,-1.589 6.742,-2.847 10.806,-1.57 0.012,0.003 0.853,0.247 2.026,0.584 -2.697,1.244 -4.715,3.801 -5.114,6.952 -0.455,3.621 1.345,7.016 4.298,8.765 -1.854,1.261 -3.181,3.27 -3.48,5.659 -0.555,4.404 2.578,8.695 6.983,9.123 H 7.563 z"
       id="path3-1"
       inkscape:connector-curvature="0"
       style="fill:#000000" /><path
       d="M 81.032,49.219 H 93.334 V 46.128 H 81.032 v 3.091 z m 4.61,-18.135 v 4.549 h -4.61 v 3.094 h 4.61 v 4.501 h 3.091 v -4.501 h 4.601 v -3.094 h -4.601 v -4.549 h -3.091 z m 1.546,24.283 c -7.543,0 -11.221,-6.154 -11.221,-11.631 0,-8.052 11.221,-25.855 11.221,-25.855 0,0 11.216,17.804 11.216,25.855 0,5.477 -3.67,11.631 -11.216,11.631"
       id="path5-7"
       inkscape:connector-curvature="0"
       style="fill:#000000" /><path
       d="m 72.135,21.64 c -0.428,3.364 -3.508,5.76 -6.873,5.329 L 50.374,25.095 c 1.439,-1.138 2.482,-2.69 2.998,-4.487 0.654,-2.274 0.386,-4.671 -0.767,-6.747 -0.188,-0.333 -0.396,-0.658 -0.62,-0.959 l 14.817,1.867 c 3.364,0.424 5.758,3.508 5.333,6.871"
       id="path7-4"
       inkscape:connector-curvature="0"
       style="fill:#000000" /><path
       d="m 64.94,35.887 c -0.206,1.626 -1.036,3.081 -2.334,4.089 -1.298,1.004 -2.91,1.452 -4.54,1.243 L 37.662,38.648 c -3.365,-0.425 -5.756,-3.511 -5.328,-6.872 0.206,-1.628 1.033,-3.082 2.331,-4.086 1.301,-1.011 2.913,-1.454 4.539,-1.248 l 20.404,2.577 c 3.362,0.423 5.757,3.504 5.332,6.868"
       id="path9-0"
       inkscape:connector-curvature="0"
       style="fill:#000000" /><path
       d="m 55.422,49.004 c -0.367,2.909 -3.037,4.979 -5.944,4.614 L 37.759,52.137 c -2.906,-0.365 -4.979,-3.035 -4.612,-5.943 0.369,-2.907 3.039,-4.977 5.945,-4.607 l 11.716,1.477 c 2.687,0.34 4.652,2.636 4.652,5.27 0,0.222 -0.006,0.444 -0.038,0.67"
       id="path11"
       inkscape:connector-curvature="0"
       style="fill:#000000" /></g></g></svg>