<?xml version="1.0" encoding="UTF-8" standalone="no"?>
<svg
   xmlns:dc="http://purl.org/dc/elements/1.1/"
   xmlns:cc="http://creativecommons.org/ns#"
   xmlns:rdf="http://www.w3.org/1999/02/22-rdf-syntax-ns#"
   xmlns:svg="http://www.w3.org/2000/svg"
   xmlns="http://www.w3.org/2000/svg"
   xmlns:sodipodi="http://sodipodi.sourceforge.net/DTD/sodipodi-0.dtd"
   xmlns:inkscape="http://www.inkscape.org/namespaces/inkscape"
   version="1.1"
   id="Layer_1"
   x="0px"
   y="0px"
   width="192"
   height="192"
   viewBox="5 -10 192 259.2"
   enable-background="new 0 0 100 100"
   xml:space="preserve"
   inkscape:version="0.48.4 r9939"
   sodipodi:docname="noun_16266_cc.svg"
   inkscape:export-filename="C:\dysk_wu\mysmallprojects\DietphoneGit\Dietphone\images\sugar.png"
   inkscape:export-xdpi="90"
   inkscape:export-ydpi="90"><metadata
   id="metadata21"><rdf:RDF><cc:Work
       rdf:about=""><dc:format>image/svg+xml</dc:format><dc:type
         rdf:resource="http://purl.org/dc/dcmitype/StillImage" /><dc:title></dc:title></cc:Work></rdf:RDF></metadata><defs
   id="defs19" /><sodipodi:namedview
   pagecolor="#ffffff"
   bordercolor="#666666"
   borderopacity="1"
   objecttolerance="10"
   gridtolerance="10"
   guidetolerance="10"
   inkscape:pageopacity="0"
   inkscape:pageshadow="2"
   inkscape:window-width="1920"
   inkscape:window-height="1027"
   id="namedview17"
   showgrid="false"
   inkscape:zoom="2.36"
   inkscape:cx="-51.271186"
   inkscape:cy="50"
   inkscape:window-x="-8"
   inkscape:window-y="22"
   inkscape:window-maximized="1"
   inkscape:current-layer="Layer_1" />




<g
   id="g3032"
   transform="matrix(1.4815199,0,0,1.4815199,25.68101,-137.98742)"
   style="fill:#000000"><rect
     style="fill:#000000"
     id="rect3"
     height="23.813999"
     width="30.021"
     y="138.979"
     x="35.828999" /><path
     style="fill:#000000"
     inkscape:connector-curvature="0"
     id="path5"
     d="m 69.542,128.955 c -3.922,-2.333 -9.588,-3.795 -18.896,-3.795 -9.152,0 -13.786,1.54 -17.875,3.795 -4.159,2.293 -7.581,5.659 -7.581,12.641 v 37.971 c 0,11.644 3.991,20.862 25.596,20.862 22.615,0 25.702,-8.354 25.702,-20.862 v -39.236 c 0,-6.981 -2.621,-8.804 -6.946,-11.376 z M 35.279,189.98 c -2.604,0 -4.715,-2.113 -4.715,-4.717 0,-2.604 2.111,-4.716 4.715,-4.716 2.604,0 4.715,2.111 4.715,4.716 0,2.604 -2.111,4.717 -4.715,4.717 z m 15.56,3.95 c -3.694,0 -6.69,-2.996 -6.69,-6.691 0,-3.694 2.996,-6.691 6.69,-6.691 3.695,0 6.692,2.997 6.692,6.691 0,3.695 -2.997,6.691 -6.692,6.691 z m 15.562,-3.95 c -2.606,0 -4.717,-2.113 -4.717,-4.717 0,-2.604 2.11,-4.716 4.717,-4.716 2.604,0 4.714,2.111 4.714,4.716 0,2.604 -2.11,4.717 -4.714,4.717 z m 5.656,-29.345 c 0.005,0.13 0.014,0.26 0.014,0.392 0,0.131 -0.009,0.261 -0.014,0.391 v 0.059 h -0.003 c -0.356,7.627 -9.714,13.739 -21.214,13.739 -11.502,0 -20.86,-6.114 -21.215,-13.739 h -0.017 c 0,0 0,-17.175 0,-17.36 0,-7.688 9.505,-13.919 21.232,-13.919 11.726,0 21.231,6.231 21.231,13.919 -0.001,0.185 -0.014,16.518 -0.014,16.518 z" /><rect
     style="fill:#000000"
     id="rect7"
     height="20.511999"
     width="6.6529999"
     y="202.062"
     x="47.513" /><rect
     style="fill:#000000"
     id="rect9"
     height="3.6440001"
     width="4.8530002"
     y="217.91499"
     x="48.412998" /><rect
     style="fill:#000000"
     id="rect11"
     height="3.6440001"
     width="0.861"
     y="217.91499"
     x="50.408001" /></g>
</svg>