<?xml version="1.0" encoding="UTF-8" standalone="no"?>
<svg
   xmlns:dc="http://purl.org/dc/elements/1.1/"
   xmlns:cc="http://creativecommons.org/ns#"
   xmlns:rdf="http://www.w3.org/1999/02/22-rdf-syntax-ns#"
   xmlns:svg="http://www.w3.org/2000/svg"
   xmlns="http://www.w3.org/2000/svg"
   xmlns:sodipodi="http://sodipodi.sourceforge.net/DTD/sodipodi-0.dtd"
   xmlns:inkscape="http://www.inkscape.org/namespaces/inkscape"
   version="1.1"
   id="Layer_1"
   x="0px"
   y="0px"
   width="192"
   height="192"
   viewBox="5 -10 192 259.2"
   enable-background="new 0 0 100 100"
   xml:space="preserve"
   inkscape:version="0.48.4 r9939"
   sodipodi:docname="noun_23051_cc.svg"
   inkscape:export-filename="C:\dysk_wu\mysmallprojects\DietphoneGit\Dietphone\images\meal.png"
   inkscape:export-xdpi="90"
   inkscape:export-ydpi="90"><metadata
   id="metadata3027"><rdf:RDF><cc:Work
       rdf:about=""><dc:format>image/svg+xml</dc:format><dc:type
         rdf:resource="http://purl.org/dc/dcmitype/StillImage" /><dc:title></dc:title></cc:Work></rdf:RDF></metadata><defs
   id="defs3025" /><sodipodi:namedview
   pagecolor="#ffffff"
   bordercolor="#666666"
   borderopacity="1"
   objecttolerance="10"
   gridtolerance="10"
   guidetolerance="10"
   inkscape:pageopacity="0"
   inkscape:pageshadow="2"
   inkscape:window-width="1920"
   inkscape:window-height="1027"
   id="namedview3023"
   showgrid="false"
   inkscape:zoom="2.36"
   inkscape:cx="-51.271186"
   inkscape:cy="50"
   inkscape:window-x="-8"
   inkscape:window-y="22"
   inkscape:window-maximized="1"
   inkscape:current-layer="Layer_1" />
<path
   d="M 151.08124,75.322847 C 137.67023,71.106995 119.88088,68.782912 101,68.782912 c -18.880878,0 -36.670233,2.322551 -50.081236,6.539935 -18.295257,5.755019 -22.135514,12.869841 -22.135514,17.826147 0,12.770186 4.289436,32.342466 16.329904,48.966716 9.348458,12.9097 26.633444,28.30138 55.886846,28.30138 29.25492,0 46.53839,-15.39168 55.88838,-28.30138 12.04047,-16.62731 16.32837,-36.19653 16.32837,-48.966716 0,-4.956306 -3.83873,-12.071128 -22.13551,-17.826147 z M 101,73.611978 c 39.7133,0 67.38921,10.295872 67.38921,19.537016 0,3.102863 -3.2301,6.418826 -9.13842,9.408236 C 147.47554,95.241588 125.38295,90.734462 101,90.734462 c -24.384477,0 -46.473999,4.507126 -58.250786,11.822768 -5.905256,-2.98941 -9.136898,-6.305373 -9.136898,-9.408236 0,-9.241144 27.674374,-19.537016 67.387684,-19.537016 z m 51.97761,65.670672 C 144.28681,151.28019 128.216,165.58342 101,165.58342 c -27.215996,0 -43.285285,-14.30323 -51.976069,-26.30077 -8.595735,-11.86877 -13.003215,-25.3043 -14.642032,-36.34522 1.227963,0.99801 2.572437,1.89788 3.938372,2.69968 l -0.08431,0.0566 1.091521,0.51357 c 0.861566,0.47217 1.723133,0.90755 2.563238,1.30307 l 1.246357,0.58717 0.101182,-0.069 c 13.407937,5.89912 34.829055,9.39905 57.760204,9.39905 22.93116,0 44.35382,-3.503 57.76022,-9.39905 l 0.10111,0.069 1.24482,-0.58717 c 0.8401,-0.39552 1.70014,-0.8309 2.5663,-1.30462 l 1.08847,-0.51202 -0.0843,-0.0566 c 1.36747,-0.8018 2.7104,-1.70167 3.93837,-2.69968 -1.63421,11.04092 -6.04324,24.47645 -14.6359,36.34522 z"
   id="path3017"
   inkscape:connector-curvature="0"
   style="fill:#000000"
   inkscape:export-filename="C:\dysk_wu\mysmallprojects\DietphoneGit\Dietphone\images\path3017.png"
   inkscape:export-xdpi="90"
   inkscape:export-ydpi="90" />
</svg>