<?xml version="1.0" encoding="UTF-8" standalone="no"?>
<!-- Created with Inkscape (http://www.inkscape.org/) -->

<svg
   xmlns:dc="http://purl.org/dc/elements/1.1/"
   xmlns:cc="http://creativecommons.org/ns#"
   xmlns:rdf="http://www.w3.org/1999/02/22-rdf-syntax-ns#"
   xmlns:svg="http://www.w3.org/2000/svg"
   xmlns="http://www.w3.org/2000/svg"
   xmlns:sodipodi="http://sodipodi.sourceforge.net/DTD/sodipodi-0.dtd"
   xmlns:inkscape="http://www.inkscape.org/namespaces/inkscape"
   width="480"
   height="800"
   id="svg3009"
   version="1.1"
   inkscape:version="0.48.4 r9939"
   inkscape:export-filename="W:\mysmallprojects\DietphoneGit\Dietphone.Droid\Resources\drawable\splash.png"
   inkscape:export-xdpi="90"
   inkscape:export-ydpi="90"
   sodipodi:docname="splash.svg">
  <defs
     id="defs3011" />
  <sodipodi:namedview
     id="base"
     pagecolor="#25a1da"
     bordercolor="#666666"
     borderopacity="1.0"
     inkscape:pageopacity="1"
     inkscape:pageshadow="2"
     inkscape:zoom="0.7"
     inkscape:cx="88.143372"
     inkscape:cy="381.47959"
     inkscape:document-units="px"
     inkscape:current-layer="layer1"
     showgrid="false"
     inkscape:window-width="1842"
     inkscape:window-height="1057"
     inkscape:window-x="1990"
     inkscape:window-y="-8"
     inkscape:window-maximized="1" />
  <metadata
     id="metadata3014">
    <rdf:RDF>
      <cc:Work
         rdf:about="">
        <dc:format>image/svg+xml</dc:format>
        <dc:type
           rdf:resource="http://purl.org/dc/dcmitype/StillImage" />
        <dc:title></dc:title>
      </cc:Work>
    </rdf:RDF>
  </metadata>
  <g
     inkscape:label="Layer 1"
     inkscape:groupmode="layer"
     id="layer1"
     transform="translate(0,-252.36218)">
    <g
       id="g3143"
       transform="matrix(1.348238,0,0,1.348238,-692.21027,-38.423978)">
      <g
         id="g2994"
         transform="matrix(-1.3275021,0,0,1.3275021,698.71895,405.70242)"
         style="fill:#ffffff">
        <path
           d="M 7.563,54.977 C 0.543,54.977 0,47.413 0,47.413 V 0.003 h 92.995 c 0,0 7.006,-0.325 7.006,6.125 0,6.782 -6.057,6.411 -6.057,6.411 H 69.116 c -0.622,-0.233 -1.28,-0.4 -1.974,-0.485 L 46.834,9.49 24.384,3.019 c -0.718,-0.208 -1.464,0.205 -1.673,0.919 -0.204,0.718 0.203,1.5 0.917,1.709 l 22.9,6.602 c 1.58,0.452 2.885,1.497 3.684,2.936 0.796,1.436 0.984,3.094 0.527,4.668 -0.45,1.576 -1.493,2.882 -2.936,3.68 -1.424,0.789 -3.075,0.979 -4.639,0.537 -0.011,-0.003 -0.021,-0.003 -0.036,-0.003 l -9.632,-2.794 c -4.997,-1.566 -8.716,0.007 -12.666,1.67 -3.042,1.286 -6.185,2.605 -10.45,2.896 -0.522,0.034 -1.072,0.067 -1.714,0.064 -0.753,-0.007 -1.362,0.594 -1.365,1.335 -0.012,0.748 0.615,1.401 1.365,1.401 5.725,-0.003 9.713,-1.688 13.232,-3.175 3.765,-1.589 6.742,-2.847 10.806,-1.57 0.012,0.003 0.853,0.247 2.026,0.584 -2.697,1.244 -4.715,3.801 -5.114,6.952 -0.455,3.621 1.345,7.016 4.298,8.765 -1.854,1.261 -3.181,3.27 -3.48,5.659 -0.555,4.404 2.578,8.695 6.983,9.123 H 7.563 z"
           id="path3-1"
           inkscape:connector-curvature="0"
           style="fill:#ffffff" />
        <path
           d="M 81.032,49.219 H 93.334 V 46.128 H 81.032 v 3.091 z m 4.61,-18.135 v 4.549 h -4.61 v 3.094 h 4.61 v 4.501 h 3.091 v -4.501 h 4.601 v -3.094 h -4.601 v -4.549 h -3.091 z m 1.546,24.283 c -7.543,0 -11.221,-6.154 -11.221,-11.631 0,-8.052 11.221,-25.855 11.221,-25.855 0,0 11.216,17.804 11.216,25.855 0,5.477 -3.67,11.631 -11.216,11.631"
           id="path5-7"
           inkscape:connector-curvature="0"
           style="fill:#ffffff" />
        <path
           d="m 72.135,21.64 c -0.428,3.364 -3.508,5.76 -6.873,5.329 L 50.374,25.095 c 1.439,-1.138 2.482,-2.69 2.998,-4.487 0.654,-2.274 0.386,-4.671 -0.767,-6.747 -0.188,-0.333 -0.396,-0.658 -0.62,-0.959 l 14.817,1.867 c 3.364,0.424 5.758,3.508 5.333,6.871"
           id="path7-4"
           inkscape:connector-curvature="0"
           style="fill:#ffffff" />
        <path
           d="m 64.94,35.887 c -0.206,1.626 -1.036,3.081 -2.334,4.089 -1.298,1.004 -2.91,1.452 -4.54,1.243 L 37.662,38.648 c -3.365,-0.425 -5.756,-3.511 -5.328,-6.872 0.206,-1.628 1.033,-3.082 2.331,-4.086 1.301,-1.011 2.913,-1.454 4.539,-1.248 l 20.404,2.577 c 3.362,0.423 5.757,3.504 5.332,6.868"
           id="path9-0"
           inkscape:connector-curvature="0"
           style="fill:#ffffff" />
        <path
           d="m 55.422,49.004 c -0.367,2.909 -3.037,4.979 -5.944,4.614 L 37.759,52.137 c -2.906,-0.365 -4.979,-3.035 -4.612,-5.943 0.369,-2.907 3.039,-4.977 5.945,-4.607 l 11.716,1.477 c 2.687,0.34 4.652,2.636 4.652,5.27 0,0.222 -0.006,0.444 -0.038,0.67"
           id="path11"
           inkscape:connector-curvature="0"
           style="fill:#ffffff" />
      </g>
      <g
         style="fill:#ffffff"
         id="g3007"
         transform="matrix(1.7965182,0,0,1.7965182,637.42694,466.26183)">
        <g
           style="fill:#ffffff"
           id="Layer_4">
          <path
             style="fill:#ffffff"
             d="m 40.797,12.497 v 0.002 c 0.007,0 0.014,-0.002 0.021,-0.002 2.899,0 5.324,1.675 6.145,3.968 0.869,-0.504 1.842,-0.796 2.875,-0.796 1.042,0 2.024,0.297 2.899,0.81 0.817,-2.299 3.246,-3.981 6.15,-3.981 0.007,0 0.016,0.002 0.021,0.002 v -0.002 h 4.691 C 63.67,12.493 63.743,12.491 63.816,12.484 62.324,6.631 56.703,2.277 49.976,2.277 c -6.734,0 -12.357,4.361 -13.844,10.219 h 4.665 z"
             id="path7"
             inkscape:connector-curvature="0" />
          <path
             style="fill:#ffffff"
             d="M 98.815,53.447 76.674,20.993 c -0.273,-0.401 -0.593,-0.748 -0.936,-1.063 0.578,1.41 0.903,2.95 0.903,4.565 0,4.299 -2.269,8.07 -5.663,10.206 l 7.093,10.396 -9.557,-3.24 c -6.714,-1.883 -14.605,-2.18 -14.605,-2.18 2.231,-0.816 4.18,-2.299 5.628,-4.244 -3.932,-1.825 -6.725,-5.699 -6.983,-10.25 0,0 -0.133,-3.336 -2.75,-3.314 -2.265,0.019 -2.618,2.252 -2.705,3.288 -0.002,4.744 -2.717,8.188 -6.712,10.154 1.467,2.015 3.461,3.547 5.753,4.375 0,0 -8.507,0.229 -14.76,2.171 l -9.556,3.24 7.024,-10.296 C 25.362,32.684 23.02,28.862 23.02,24.495 c 0,-1.465 0.276,-2.862 0.756,-4.162 -0.191,0.211 -0.389,0.417 -0.555,0.66 L 1.081,53.447 c -1.506,2.207 -1.433,5.131 0.184,7.261 1.198,1.578 3.044,2.456 4.951,2.456 0.665,0 1.338,-0.106 1.993,-0.329 l 20.679,-7.01 V 85.031 H 70.779 V 55.749 l 20.907,7.086 c 0.655,0.223 1.328,0.329 1.992,0.329 1.907,0 3.754,-0.878 4.951,-2.456 1.617,-2.13 1.691,-5.054 0.186,-7.261 z"
             id="path9"
             inkscape:connector-curvature="0" />
        </g>
        <g
           style="fill:#ffffff"
           id="Layer_5">
          <g
             style="fill:#ffffff"
             id="g12">
            <g
               style="fill:#ffffff"
               id="g14">
              <path
                 style="fill:#ffffff"
                 d="m 35.083,34.082 c -5.286,0 -9.587,-4.299 -9.587,-9.586 0,-5.286 4.301,-9.587 9.587,-9.587 5.287,0 9.589,4.301 9.589,9.587 0,5.286 -4.302,9.586 -9.589,9.586 l 0,0 z m 0,-14.226 c -2.558,0 -4.639,2.081 -4.639,4.639 0,2.557 2.082,4.639 4.639,4.639 2.559,0 4.641,-2.082 4.641,-4.639 0,-2.557 -2.082,-4.639 -4.641,-4.639 l 0,0 z"
                 id="path16"
                 inkscape:connector-curvature="0" />
            </g>
            <g
               style="fill:#ffffff"
               id="g18">
              <path
                 style="fill:#ffffff"
                 d="m 64.581,34.082 c -5.287,0 -9.588,-4.299 -9.588,-9.586 0,-5.286 4.301,-9.587 9.588,-9.587 5.286,0 9.587,4.301 9.587,9.587 0,5.286 -4.301,9.586 -9.587,9.586 l 0,0 z m 0,-14.226 c -2.558,0 -4.638,2.081 -4.638,4.639 0,2.557 2.08,4.639 4.638,4.639 2.557,0 4.638,-2.082 4.638,-4.639 0,-2.557 -2.081,-4.639 -4.638,-4.639 l 0,0 z"
                 id="path20"
                 inkscape:connector-curvature="0" />
            </g>
          </g>
        </g>
      </g>
    </g>
  </g>
</svg>
